<svg id="Layer_1" data-name="Layer 1" xmlns="http://www.w3.org/2000/svg" viewBox="0 0 61.13 49.4"><defs><style>.cls-1{fill:#333;}</style></defs><title>Untitled-1</title><path class="cls-1" d="M59.46,37.41c-1.6-2-4.6-2.78-6.78-3.93-.84-.43-1.71-.84-2.55-1.3.8-.15.78-1.43-.08-1.36-.59,0-1.19.05-1.78.07a19,19,0,0,1-2.15-2.41c.87-.09.87-1.46,0-1.39-.36,0-.73,0-1.09.05Q43.94,26,42.94,24.77H43c.88-.07.89-1.46,0-1.39-.4,0-.8,0-1.19.05-.62-.78-1.22-1.57-1.8-2.38h.06c.88-.07.89-1.46,0-1.4-.33,0-.66,0-1,.05-.31-.47-.63-.93-.93-1.42a10.16,10.16,0,0,1-.52-.95h.1c.89-.07.9-1.47,0-1.4L37,16c-.76-1.56-1.65-3.2-2.93-3.75a2.23,2.23,0,0,0-.56-.16c-.22-.7-.49-1.41-.77-2.07a1.65,1.65,0,0,0-.53-.85c-.87-.62-2.67-.44-3.63-.23-2.8.61-3.26,3.11-3.41,5.6h0a4.83,4.83,0,0,1-2.36.12,10.63,10.63,0,0,1-5.77-4C16,9,16.66,6.53,15,5.42a2.27,2.27,0,0,0-.54-.27A3.18,3.18,0,0,0,12.39,0a1.74,1.74,0,0,0-2,1.73c0,.69.54,1.16.85,1.71a2.28,2.28,0,0,1-.42,2.79v0C7.39,9,1.69,12.31,2.49,17.45c-3.18,1.34-3,6.5-1.15,8.84,3.45,4.29,9,6.49,13.86,8.7a56.53,56.53,0,0,1,7.3,3.76c3,1.94,5.34,4.56,8.1,6.78,4.29,3.45,7.81,3.79,13.14,3.85,3.08,0,6.16,0,9.24-.19,2.14-.16,4-.21,5.71-1.69A7.27,7.27,0,0,0,59.46,37.41Zm.26,4.92c-3.76,2.32-9.62,1.93-13.86,1.5a20.87,20.87,0,0,1-5.73-1.44c.9-2.72,4.75-3.35,7.13-3.07a12.67,12.67,0,0,0,3.47.24A7.05,7.05,0,0,0,55.25,36a8.86,8.86,0,0,1,1.91,1.18A7.39,7.39,0,0,1,59.72,42.33ZM35.34,16c-1,0-1.94,0-2.92-.06s-.89,1.33,0,1.39a36.66,36.66,0,0,0,3.78,0c.47.82.89,1.65,1.3,2.37-.91,0-1.83,0-2.74-.07s-.9,1.34,0,1.39c1.2.08,2.41.08,3.62,0,.53.8,1.08,1.59,1.66,2.36-.79,0-1.57,0-2.35-.07s-.9,1.34,0,1.4c1.14.07,2.28.07,3.43,0,.62.8,1.26,1.58,1.92,2.35-.76,0-1.52,0-2.29-.06s-.89,1.33,0,1.39c1.16.07,2.31.08,3.46,0,.69.79,1.38,1.57,2.08,2.34-.53,0-1.06,0-1.59,0-.9-.06-.89,1.34,0,1.39s2.06.08,3.09.06a10,10,0,0,0,1.23.81c-4.53,2.68-8.74-3.12-11.31-6.19a76.64,76.64,0,0,1-8.38-12.75,5.55,5.55,0,0,1,2.56-.63A5.08,5.08,0,0,1,35.34,16Zm-6.58-5.75a3.94,3.94,0,0,1,2.38,0c.37.2.7,1.08.91,1.75a17.5,17.5,0,0,0-3.56,1.16c-.61.25-1.24.54-1.89.81C26.71,12.4,27,10.77,28.76,10.27ZM15.12,9.93a8.67,8.67,0,0,0,2.48,3.42c2.43,2.05,5.58,3.4,8.63,2.28a18.56,18.56,0,0,0,1.84-.86c.33.59.67,1.16,1,1.74-3.38,1.35-6.42,1.78-10,.51-4.36-1.55-6.62-5.24-7.51-9.65.18-.14.36-.28.52-.42C14.07,5.3,14.63,8.56,15.12,9.93ZM12.84,1.59A1.83,1.83,0,0,1,13,4.75a.52.52,0,0,0-.1.11,3.22,3.22,0,0,0-.25-1.71c-.18-.38-.51-.67-.69-1C11.61,1.36,12.28,1.3,12.84,1.59ZM10.39,8.28c2.17,9.22,10.71,13,19.39,9.45A93.36,93.36,0,0,0,39.23,31c2.76,3.22,7.4,5.49,11.15,2.87l.58.3c.86.44,1.94.85,3,1.3a5.29,5.29,0,0,1-5,2.7,26.39,26.39,0,0,0-4.07-.33c-2.28.24-5.19,1.73-6.06,4a36.28,36.28,0,0,1-7.53-4.93l-.26-.23a.66.66,0,0,0,.24-.3c1.36-3.3-.15-7.25-2.8-9.46-3.13-2.61-6.84-2.78-10.65-1.93a.5.5,0,0,0-.28.14c-4.42-2.77-9-5.26-13.66-7.65C3.07,13.4,7.26,10.56,10.39,8.28ZM30,35.77c-3.57-3.2-6.58-6.87-10.66-9.54l-.17-.11A10,10,0,0,1,27,27.53C29.59,29.31,31.12,32.76,30,35.77ZM58,46.22c-2.2,1.75-5.34,1.65-8,1.74-4.16.13-9.53.86-13.51-.52-4.62-1.6-7.69-5.85-11.48-8.68s-8.45-4.62-12.8-6.69a37.36,37.36,0,0,1-6.89-4,13,13,0,0,1-3.48-3.44c-.82-1.56-.51-5.19,1.47-5.92,5.74,2.95,11.67,6,16.9,9.76s9.23,9.17,14.79,12.81A24.87,24.87,0,0,0,48,45.37c3.62.16,8.09.31,11.5-1.33A4.4,4.4,0,0,1,58,46.22Z"/><path class="cls-1" d="M8.66,26.74C6.89,26,4.18,24.13,4.09,22c0-.9-1.44-.9-1.4,0,.13,2.84,3.21,5.1,5.6,6.07C9.12,28.42,9.48,27.07,8.66,26.74Z"/><path class="cls-1" d="M10.14,28a.7.7,0,0,0,0,1.4A.7.7,0,0,0,10.14,28Z"/></svg>