<!DOCTYPE svg PUBLIC "-//W3C//DTD SVG 20010904//EN" "http://www.w3.org/TR/2001/REC-SVG-20010904/DTD/svg10.dtd">
<svg version="1.0" xmlns="http://www.w3.org/2000/svg" width="200px" height="43px" viewBox="0 0 2000 430" preserveAspectRatio="xMidYMid meet">
<g id="layer101" fill="#3e54d3" stroke="none">
 <path d="M0 215 l0 -215 1000 0 1000 0 0 215 0 215 -1000 0 -1000 0 0 -215z"/>
 </g>
<g id="layer102" fill="#4f7fe2" stroke="none">
 <path d="M0 215 l0 -215 1000 0 1000 0 0 215 0 215 -1000 0 -1000 0 0 -215z m202 53 c-15 -15 -26 -4 -18 18 5 13 9 15 18 6 9 -9 9 -15 0 -24z m-42 -3 c-7 -8 -16 -15 -21 -15 -5 0 -6 7 -3 15 4 8 13 15 21 15 13 0 13 -3 3 -15z m90 5 c8 -5 12 -12 9 -15 -8 -8 -39 5 -39 16 0 11 11 11 30 -1z"/>
 </g>
<g id="layer103" fill="#6590e6" stroke="none">
 <path d="M0 215 l0 -215 1000 0 1000 0 0 215 0 215 -1000 0 -1000 0 0 -215z m202 53 c-15 -15 -26 -4 -18 18 5 13 9 15 18 6 9 -9 9 -15 0 -24z m-45 -5 c-9 -9 -19 -14 -23 -11 -10 10 6 28 24 28 15 0 15 -1 -1 -17z m93 7 c8 -5 12 -12 9 -15 -8 -8 -39 5 -39 16 0 11 11 11 30 -1z m203 -17 c-8 -3 -13 -24 -13 -53 0 -29 5 -50 13 -53 6 -3 -1 -5 -18 -5 -16 0 -24 2 -17 5 7 3 12 24 12 53 0 29 -5 50 -12 53 -7 3 1 5 17 5 17 0 24 -2 18 -5z m44 0 c-4 -3 -10 -3 -14 0 -3 4 0 7 7 7 7 0 10 -3 7 -7z m55 -33 c-2 -22 -5 -40 -7 -40 -2 0 -5 18 -7 40 -2 24 1 40 7 40 6 0 9 -16 7 -40z m55 33 c-4 -3 -10 -3 -14 0 -3 4 0 7 7 7 7 0 10 -3 7 -7z m55 -33 c-2 -22 -5 -40 -7 -40 -2 0 -5 18 -7 40 -2 24 1 40 7 40 6 0 9 -16 7 -40z m151 0 c-9 -22 -18 -38 -20 -36 -5 5 24 76 31 76 2 0 -3 -18 -11 -40z m88 31 c-8 -5 -10 -14 -6 -22 6 -11 5 -11 -5 -2 -14 12 -6 33 13 33 8 0 7 -3 -2 -9z m52 2 c-7 -2 -14 -21 -14 -41 -2 -32 -3 -33 -6 -9 -5 35 2 57 19 56 10 0 10 -2 1 -6z m67 3 c0 -2 -7 -7 -16 -10 -8 -3 -12 -2 -9 4 6 10 25 14 25 6z m52 -36 c-2 -22 -5 -40 -7 -40 -2 0 -5 18 -7 40 -2 24 1 40 7 40 6 0 9 -16 7 -40z m150 0 c-2 -22 -5 -40 -7 -40 -2 0 -5 18 -7 40 -2 24 1 40 7 40 6 0 9 -16 7 -40z m58 10 c0 -16 -2 -30 -4 -30 -2 0 -6 14 -8 30 -3 17 -1 30 4 30 4 0 8 -13 8 -30z m103 23 c-8 -3 -13 -23 -13 -51 l0 -47 21 25 20 25 -16 -32 c-11 -23 -22 -33 -38 -32 -12 0 -16 3 -9 6 7 3 12 24 12 53 0 29 -5 50 -12 53 -7 3 1 5 17 5 17 0 24 -2 18 -5z m80 -105 c7 -4 -1 -7 -18 -7 -16 0 -24 3 -17 6 7 3 12 23 12 51 0 43 -1 45 -16 26 -17 -21 -8 2 10 25 8 11 12 2 14 -40 2 -29 9 -57 15 -61z m44 105 c-4 -3 -10 -3 -14 0 -3 4 0 7 7 7 7 0 10 -3 7 -7z m53 3 c0 -2 -8 -10 -17 -17 -16 -13 -17 -12 -4 4 13 16 21 21 21 13z m53 -3 c-8 -3 -13 -23 -13 -51 0 -25 -3 -42 -7 -38 -8 7 -5 75 4 89 2 4 10 7 16 6 9 0 9 -2 0 -6z m67 -33 c0 -22 -2 -40 -4 -40 -2 0 -6 18 -8 40 -2 22 0 40 4 40 5 0 8 -18 8 -40z m100 -6 c0 -12 -4 -25 -9 -28 -4 -3 -6 6 -3 19 2 14 -2 33 -9 43 -13 15 -12 16 4 3 9 -7 17 -24 17 -37z m47 39 c-4 -3 -10 -3 -14 0 -3 4 0 7 7 7 7 0 10 -3 7 -7z m55 -33 c-2 -22 -5 -40 -7 -40 -2 0 -5 18 -7 40 -2 24 1 40 7 40 6 0 9 -16 7 -40z m-1180 -9 c2 -17 1 -28 -4 -25 -8 5 -12 54 -4 54 2 0 6 -13 8 -29z m51 -22 c-6 -6 -7 3 -4 23 4 28 6 29 9 9 2 -13 0 -27 -5 -32z m969 22 c2 -17 1 -28 -4 -25 -8 5 -12 54 -4 54 2 0 6 -13 8 -29z m-603 -26 c0 -5 -4 -3 -9 5 -5 8 -9 22 -9 30 0 16 17 -16 18 -35z m51 8 c-11 -17 -11 -17 -6 0 3 10 6 24 7 30 0 9 2 9 5 0 3 -7 0 -20 -6 -30z m-1053 5 c-3 -8 -6 -5 -6 6 -1 11 2 17 5 13 3 -3 4 -12 1 -19z m1420 -10 c-3 -7 -5 -2 -5 12 0 14 2 19 5 13 2 -7 2 -19 0 -25z m-1040 5 c-4 -3 -7 0 -7 7 0 7 3 10 7 7 3 -4 3 -10 0 -14z m350 0 c-4 -3 -7 0 -7 7 0 7 3 10 7 7 3 -4 3 -10 0 -14z m980 0 c-4 -3 -7 0 -7 7 0 7 3 10 7 7 3 -4 3 -10 0 -14z m-1217 3 c0 -3 -5 -8 -12 -12 -7 -4 -8 -3 -4 4 7 12 16 16 16 8z m287 -3 c-4 -3 -10 -3 -14 0 -3 4 0 7 7 7 7 0 10 -3 7 -7z m100 -20 c-4 -3 -10 -3 -14 0 -3 4 0 7 7 7 7 0 10 -3 7 -7z m-867 -18 c0 -8 -4 -15 -9 -15 -13 0 -22 16 -14 24 11 11 23 6 23 -9z m1547 -12 c-4 -3 -10 -3 -14 0 -3 4 0 7 7 7 7 0 10 -3 7 -7z m-1512 -31 c-3 -3 -11 0 -18 7 -9 10 -8 11 6 5 10 -3 15 -9 12 -12z"/>
 </g>
<g id="layer104" fill="#a0baef" stroke="none">
 <path d="M0 215 l0 -215 1000 0 1000 0 0 215 0 215 -1000 0 -1000 0 0 -215z m202 53 c-15 -15 -26 -4 -18 18 5 13 9 15 18 6 9 -9 9 -15 0 -24z m-45 -5 c-9 -9 -19 -14 -23 -11 -10 10 6 28 24 28 15 0 15 -1 -1 -17z m93 7 c8 -5 12 -12 9 -15 -8 -8 -39 5 -39 16 0 11 11 11 30 -1z m203 -17 c-8 -3 -13 -24 -13 -53 0 -29 5 -50 13 -53 6 -3 -4 -5 -23 -5 -19 0 -29 2 -22 5 7 3 12 24 12 53 0 29 -5 50 -12 53 -7 3 3 5 22 5 19 0 29 -2 23 -5z m49 -33 c-6 -56 -19 -59 -24 -5 -2 35 0 45 12 45 12 0 15 -9 12 -40z m61 32 c-6 -4 -13 -23 -15 -41 -2 -20 -9 -36 -18 -39 -12 -4 -13 -2 -2 9 6 7 12 25 12 40 0 15 -6 30 -12 32 -7 3 1 6 17 6 17 0 25 -3 18 -7z m52 -32 c0 -56 -22 -60 -27 -4 -2 34 0 44 12 44 11 0 15 -11 15 -40z m58 32 c-6 -4 -13 -23 -15 -41 -2 -20 -9 -36 -18 -39 -12 -4 -13 -2 -2 9 6 7 12 25 12 40 0 15 -6 30 -12 32 -7 3 1 6 17 6 17 0 25 -3 18 -7z m71 2 c21 -8 21 -58 0 -75 -22 -18 -48 0 -52 36 -5 36 17 52 52 39z m90 -10 c9 -23 7 -31 -4 -14 -7 12 -12 8 -21 -18 -6 -18 -13 -31 -16 -28 -7 7 17 76 27 76 4 0 11 -7 14 -16z m66 6 c-13 -9 -13 -11 0 -20 21 -14 30 -12 30 4 0 21 20 30 33 17 9 -9 8 -11 -5 -6 -15 6 -18 1 -18 -29 0 -20 -2 -36 -4 -36 -2 0 -13 -3 -23 -6 -16 -6 -16 -5 1 8 19 15 19 16 -7 33 -31 20 -36 45 -9 45 14 0 15 -2 2 -10z m125 0 c3 -6 -1 -7 -9 -4 -13 5 -16 -3 -16 -46 0 -31 -4 -49 -10 -45 -11 7 -14 64 -4 89 7 18 30 21 39 6z m58 2 c-6 -4 -13 -23 -15 -42 l-3 -35 -6 43 c-4 37 -2 42 16 42 12 0 16 -3 8 -8z m87 -7 c15 -18 6 -61 -16 -69 -24 -9 -54 12 -54 37 0 43 44 63 70 32z m62 6 c-8 -4 -13 -19 -12 -32 3 -36 1 -49 -8 -49 -4 0 -6 16 -4 36 3 24 0 39 -9 45 -10 6 -5 9 16 9 20 0 26 -3 17 -9z m50 -23 c-5 -36 -18 -58 -36 -58 -6 0 -5 4 3 9 9 6 12 21 9 45 -3 28 -1 36 12 36 13 0 16 -7 12 -32z m100 23 c-9 -5 -12 -24 -10 -52 l3 -44 29 53 c16 28 33 52 38 52 4 0 8 -24 8 -54 0 -34 5 -56 13 -59 6 -3 -1 -6 -18 -6 -20 0 -26 2 -17 8 8 5 12 23 10 47 l-3 39 -28 -47 c-20 -35 -34 -48 -50 -47 -12 0 -16 3 -9 6 7 3 12 24 12 53 0 29 -5 50 -12 53 -7 3 1 6 17 6 20 0 25 -2 17 -8z m181 2 c-7 -3 -13 -17 -13 -33 0 -15 -7 -33 -15 -40 -17 -14 -45 -7 -44 12 0 10 2 10 6 1 2 -7 11 -13 19 -13 18 0 14 62 -5 68 -10 3 -12 0 -8 -12 7 -17 -8 -22 -18 -6 -11 18 4 27 47 27 24 0 37 -2 31 -4z m54 0 c-14 -4 -17 -14 -16 -49 2 -24 0 -47 -4 -50 -8 -8 -10 6 -7 56 2 43 7 50 28 49 15 -1 15 -2 -1 -6z m65 -33 c-2 -22 -8 -40 -12 -40 -4 0 -10 18 -12 40 -3 31 0 40 12 40 12 0 15 -9 12 -40z m82 34 c20 -8 21 -57 1 -74 -30 -25 -70 16 -54 58 8 22 24 27 53 16z m68 -34 c-6 -56 -19 -59 -24 -5 -2 35 0 45 12 45 12 0 15 -9 12 -40z m61 32 c-6 -4 -13 -23 -15 -41 -2 -20 -9 -36 -18 -39 -12 -4 -13 -2 -2 9 6 7 12 25 12 40 0 15 -6 30 -12 32 -7 3 1 6 17 6 17 0 25 -3 18 -7z m-256 -29 c-4 -3 -7 0 -7 7 0 7 3 10 7 7 3 -4 3 -10 0 -14z m-1520 -35 c-3 -7 -5 -2 -5 12 0 14 2 19 5 13 2 -7 2 -19 0 -25z m163 11 c0 -11 -4 -17 -10 -14 -5 3 -10 13 -10 21 0 8 5 14 10 14 6 0 10 -9 10 -21z m574 -4 c3 -8 1 -15 -4 -15 -6 0 -10 7 -10 15 0 8 2 15 4 15 2 0 6 -7 10 -15z m46 1 c0 -3 -4 -8 -10 -11 -5 -3 -10 -1 -10 4 0 6 5 11 10 11 6 0 10 -2 10 -4z m-765 -35 c7 -12 -12 -24 -25 -16 -11 7 -4 25 10 25 5 0 11 -4 15 -9z m145 -6 c0 -8 -7 -15 -15 -15 -8 0 -15 7 -15 15 0 8 7 15 15 15 8 0 15 -7 15 -15z m787 -12 c-4 -3 -7 0 -7 7 0 7 3 10 7 7 3 -4 3 -10 0 -14z m610 0 c-4 -3 -10 -3 -14 0 -3 4 0 7 7 7 7 0 10 -3 7 -7z m-1507 -23 c13 -8 13 -10 -2 -10 -9 0 -20 5 -23 10 -8 13 5 13 25 0z m66 -5 c-11 -8 -22 -12 -25 -9 -6 6 19 24 34 24 6 -1 1 -7 -9 -15z"/>
 <path d="M704 236 c-10 -26 0 -51 21 -51 16 0 20 7 20 30 0 33 -30 49 -41 21z"/>
 <path d="M1116 234 c-7 -17 10 -54 24 -54 14 0 28 31 23 51 -6 23 -39 25 -47 3z"/>
 <path d="M1724 236 c-10 -26 0 -51 21 -51 16 0 20 7 20 30 0 33 -30 49 -41 21z"/>
 </g>
<g id="layer105" fill="#fdfeff" stroke="none">
 <path d="M0 215 l0 -215 1000 0 1000 0 0 215 0 215 -1000 0 -1000 0 0 -215z m202 53 c-15 -15 -26 -4 -18 18 5 13 9 15 18 6 9 -9 9 -15 0 -24z m-45 -5 c-9 -9 -19 -14 -23 -11 -10 10 6 28 24 28 15 0 15 -1 -1 -17z m93 7 c8 -5 12 -12 9 -15 -8 -8 -39 5 -39 16 0 11 11 11 30 -1z m420 -44 c-11 -50 -16 -54 -62 -54 -24 0 -37 2 -30 5 18 7 16 73 -3 73 -10 0 -15 -10 -15 -27 0 -42 -11 -51 -60 -51 -25 0 -39 2 -32 5 6 3 12 20 12 40 0 27 -4 34 -17 31 -23 -4 -32 -86 -11 -99 8 -6 0 -8 -22 -8 -19 0 -29 3 -22 6 7 3 12 24 12 53 0 29 -5 50 -12 53 -7 3 51 6 128 6 l142 1 -8 -34z m90 18 c10 -11 11 -23 4 -42 -17 -48 -84 -38 -84 12 0 43 53 63 80 30z m91 -32 c18 -41 18 -42 -1 -42 -12 0 -17 5 -14 13 2 7 1 24 -4 37 l-9 24 -7 -28 c-4 -15 -4 -31 -1 -36 4 -6 -5 -10 -19 -10 -22 0 -25 3 -16 18 5 9 15 30 20 45 13 37 29 31 51 -21z m118 25 c0 -21 -1 -21 -9 -2 -7 17 -9 15 -9 -11 -1 -35 -21 -57 -48 -52 -19 3 -32 38 -14 38 6 0 11 -7 11 -15 0 -8 5 -15 10 -15 6 0 10 7 10 15 0 8 -4 15 -9 15 -15 0 -42 31 -36 40 3 5 25 8 50 8 40 0 45 -2 44 -21z m61 19 c0 -2 3 -11 6 -20 3 -9 1 -16 -5 -16 -6 0 -11 7 -11 15 0 8 -4 15 -10 15 -5 0 -10 -16 -10 -35 0 -26 4 -35 18 -36 16 -1 16 -2 0 -6 -10 -2 -18 -12 -18 -21 -1 -14 -3 -14 -12 3 -11 19 -12 81 -1 98 4 7 43 10 43 3z m52 -41 c-3 -38 -7 -45 -25 -45 -16 0 -18 3 -9 12 16 16 15 65 0 71 -7 3 -2 6 12 6 24 1 25 -2 22 -44z m93 6 c0 -60 -65 -70 -73 -12 -6 39 5 53 40 49 30 -3 33 -6 33 -37z m57 4 c-3 -28 -1 -35 13 -35 14 0 16 7 13 35 -4 32 -2 35 22 35 14 0 20 -3 13 -8 -6 -4 -13 -23 -15 -42 -3 -33 -5 -35 -43 -37 l-40 -2 0 45 c0 38 3 44 20 44 18 0 20 -5 17 -35z m150 -7 l-3 -43 26 43 c37 60 52 55 57 -18 3 -58 2 -60 -22 -60 -17 0 -21 3 -12 9 8 5 12 22 10 42 l-3 34 -25 -42 c-19 -33 -31 -43 -50 -42 -14 0 -19 3 -12 6 16 6 16 85 0 101 -9 9 -6 12 13 12 23 0 24 -3 21 -42z m196 29 c8 -6 12 -6 12 1 0 5 25 10 58 10 31 0 51 -2 45 -5 -8 -3 -13 -22 -13 -44 0 -25 -5 -39 -13 -39 -9 0 -11 12 -9 40 3 25 0 40 -7 40 -6 0 -11 -8 -11 -17 0 -15 -2 -14 -15 3 -13 18 -14 17 -15 -18 0 -29 4 -38 18 -39 16 -1 16 -2 0 -6 -10 -2 -18 -11 -18 -19 0 -8 -4 -14 -9 -14 -12 0 -25 31 -22 52 1 10 -4 28 -11 40 -12 22 -13 22 -18 -17 -5 -37 -8 -40 -35 -40 -17 0 -30 5 -30 13 0 6 5 12 10 11 6 -1 9 -5 8 -10 -4 -12 14 -12 22 1 3 5 -6 17 -20 26 -39 26 -32 43 18 42 23 -1 48 -6 55 -11z m202 -3 c10 -11 11 -23 4 -42 -17 -48 -84 -38 -84 12 0 43 53 63 80 30z m115 -1 c-15 -75 -12 -71 -62 -71 -27 0 -42 3 -35 5 6 3 12 20 12 38 0 18 -6 36 -12 38 -7 3 12 6 44 6 48 1 56 -1 53 -16z m-1771 -46 c-3 -9 -10 -17 -15 -17 -11 0 -12 34 -2 44 11 11 24 -9 17 -27z m156 2 c0 -11 -4 -17 -10 -14 -5 3 -10 13 -10 21 0 8 5 14 10 14 6 0 10 -9 10 -21z m-143 -49 c-4 -15 0 -20 13 -20 19 0 36 -17 27 -27 -10 -9 -77 38 -77 53 0 8 10 14 21 14 16 0 20 -5 16 -20z m143 5 c0 -8 -7 -15 -15 -15 -8 0 -15 7 -15 15 0 8 7 15 15 15 8 0 15 -7 15 -15z m800 -3 c0 -13 -12 -22 -22 -16 -10 6 -1 24 13 24 5 0 9 -4 9 -8z m600 -7 c0 -8 -4 -15 -10 -15 -5 0 -10 7 -10 15 0 8 5 15 10 15 6 0 10 -7 10 -15z m-1444 -30 c-11 -8 -22 -12 -25 -9 -6 6 19 24 34 24 6 -1 1 -7 -9 -15z"/>
 <path d="M502 223 c4 -39 28 -42 28 -4 0 21 -5 31 -16 31 -11 0 -14 -8 -12 -27z"/>
 <path d="M610 220 c0 -20 5 -30 15 -30 10 0 15 10 15 30 0 20 -5 30 -15 30 -10 0 -15 -10 -15 -30z"/>
 <path d="M705 229 c-5 -13 -1 -27 8 -36 13 -14 16 -13 26 5 13 24 5 52 -14 52 -8 0 -17 -10 -20 -21z"/>
 <path d="M900 241 c0 -5 5 -13 10 -16 6 -3 10 -2 10 4 0 5 -4 13 -10 16 -5 3 -10 2 -10 -4z"/>
 <path d="M1124 236 c-9 -23 0 -51 16 -51 10 0 15 10 15 29 0 32 -21 47 -31 22z"/>
 <path d="M1500 242 c0 -5 7 -13 16 -16 10 -4 14 -1 12 6 -5 15 -28 23 -28 10z"/>
 <path d="M1725 230 c-4 -12 -1 -28 6 -36 12 -14 14 -14 25 1 14 19 7 55 -11 55 -8 0 -17 -9 -20 -20z"/>
 <path d="M1832 223 c4 -39 28 -42 28 -4 0 21 -5 31 -16 31 -11 0 -14 -8 -12 -27z"/>
 </g>

</svg>